<?xml version="1.0" encoding="UTF-8" standalone="no"?>
<!DOCTYPE svg PUBLIC "-//W3C//DTD SVG 1.1//EN" "http://www.w3.org/Graphics/SVG/1.1/DTD/svg11.dtd">
<svg version="1.1" xmlns="http://www.w3.org/2000/svg" xmlns:xlink="http://www.w3.org/1999/xlink" preserveAspectRatio="xMidYMid meet" viewBox="203.2152573377864 280.35947712418294 236.72697843619812 84.11777068887534" width="232.73" height="80.12"><defs><path d="M218.77 359.27C217.1 359.27 215.22 359.37 213.23 359.48C211.24 359.58 209.57 359.69 208.21 359.69C207.79 359.69 207.37 359.69 206.95 359.58C206.43 359.58 206.12 359.16 206.12 358.64C206.12 358.64 206.12 358.64 206.12 358.54C206.12 358.01 206.43 357.49 206.95 357.18C208 356.55 209.25 356.13 210.51 356.03C211.14 355.92 211.76 355.82 212.39 355.61C213.02 355.4 213.65 355.08 214.07 354.56C214.59 353.93 215.01 353.2 215.32 352.37C215.63 351.11 215.84 349.75 215.74 348.39C215.74 342.88 215.74 298.79 215.74 293.28C215.74 292.76 215.42 292.24 214.9 292.03C214.27 291.71 213.54 291.5 212.81 291.4C211.97 291.29 211.14 291.19 210.2 291.19C209.25 291.19 208.42 291.08 207.69 290.98C206.33 290.88 205.49 290.67 204.97 290.56C204.44 290.46 204.13 289.93 204.24 289.41C204.24 288.99 204.44 288.58 204.76 288.26C205.07 287.95 205.49 287.74 206.01 287.63C206.54 287.53 206.95 287.42 207.48 287.42C208 287.42 208.42 287.32 208.84 287.32C209.9 287.32 218.44 287.32 219.5 287.32C222.43 287.32 225.36 287.22 228.29 287.01C231.22 286.8 234.56 286.69 238.33 286.69C244.18 286.69 250.04 287.42 255.69 288.99C260.81 290.46 265.62 292.86 269.8 296.21C273.88 299.66 277.23 303.95 279.32 308.76C281.83 314.51 282.98 320.68 282.88 326.95C282.88 331.24 281.93 335.53 279.95 339.4C278.07 343.27 275.45 346.72 272.1 349.54C268.65 352.47 264.78 354.88 260.6 356.44C256.1 358.12 251.29 358.95 246.48 358.95C244.64 358.95 235.4 358.95 218.77 358.95M227.03 349.86C227.87 351.32 229.02 352.58 230.48 353.52C231.95 354.56 233.62 355.29 235.29 355.71C237.07 356.13 238.95 356.44 240.84 356.44C242.72 356.44 244.6 356.13 246.38 355.71C248.68 355.19 250.88 354.46 252.97 353.52C255.37 352.47 257.67 351.11 259.76 349.54C262.07 347.87 264.16 345.88 265.83 343.58C267.71 341.18 269.18 338.46 270.22 335.53C271.37 332.08 271.9 328.52 271.9 324.97C271.9 321.31 271.37 317.54 270.22 314.09C268.24 307.92 264.37 302.59 259.24 298.61C256.84 296.84 254.22 295.16 251.5 293.91C246.48 291.61 241.15 290.35 235.61 290.25C233.73 290.25 231.84 290.35 229.96 290.56C228.92 290.67 227.97 290.98 227.03 291.4C226.51 291.61 226.09 292.13 225.88 292.65C225.78 293.07 225.67 293.49 225.67 293.91C225.68 297.29 225.72 314.2 225.78 344.63C226.06 347.07 226.47 348.81 227.03 349.86Z" id="c1SoVDvJde"></path><path d="M306.72 361.36C304.42 361.46 302.01 361.05 299.82 360.21C298.04 359.48 296.58 358.33 295.53 356.86C294.48 355.29 293.65 353.52 293.33 351.63C292.92 349.44 292.71 347.14 292.71 344.84C292.71 343.06 292.71 341.07 292.81 338.88C292.81 336.68 292.92 334.48 292.92 332.29C292.92 329.99 292.92 327.79 293.02 325.7C293.02 323.5 293.12 321.62 293.12 319.95C293.23 319.22 292.71 318.48 291.97 318.27C291.24 318.07 290.41 317.86 289.78 317.65C288.84 317.44 287.9 317.12 286.95 316.81C286.54 316.71 286.22 316.39 286.22 315.97C286.22 315.56 286.54 315.14 286.95 315.03C286.95 315.03 286.95 315.03 287.06 315.03C287.79 314.93 288.42 314.93 289.15 314.93C289.99 314.93 290.82 314.93 291.66 315.03C292.5 315.14 293.33 315.14 294.17 315.14C295.01 315.14 295.95 315.14 296.78 315.03C297.62 314.93 298.56 314.93 299.4 314.93C300.24 314.93 300.65 315.03 300.86 315.35C301.07 315.87 301.18 316.5 301.18 317.12C301.18 322.35 301.18 327.58 301.07 332.81C300.97 338.04 300.97 343.16 300.97 348.5C300.86 350.59 301.8 352.68 303.37 354.04C305.36 355.4 307.76 356.13 310.17 355.92C312.78 356.03 315.29 355.71 317.8 354.98C319.37 354.56 320.73 353.73 321.99 352.58C322.93 351.63 323.56 350.48 323.76 349.23C324.08 348.08 324.18 346.82 324.18 345.57C324.18 341.39 324.18 337.2 324.29 333.02C324.39 328.84 324.39 324.76 324.39 320.47C324.39 320.16 324.29 319.95 324.18 319.63C323.97 319.32 323.66 319.11 323.35 319.01C322.93 318.9 322.3 318.69 321.57 318.48C320.84 318.27 319.69 317.96 318.33 317.65C317.91 317.54 317.18 317.23 316.24 316.92C315.29 316.6 314.88 316.18 314.88 315.76C314.88 315.35 315.19 315.14 315.71 315.03C316.34 314.93 316.86 314.82 317.49 314.82C318.54 314.82 319.48 314.82 320.52 314.93C321.46 315.03 322.51 315.03 323.56 315.03C324.71 315.03 325.86 315.03 327.01 314.93C328.16 314.82 329.31 314.82 330.46 314.82C330.98 314.82 331.5 315.03 332.03 315.24C332.65 315.56 332.97 316.18 332.97 317.33C332.97 323.29 332.86 329.15 332.76 335.11C332.65 340.97 332.55 346.93 332.55 352.89C332.55 354.14 332.97 354.88 333.7 355.19C334.33 355.5 334.95 355.61 335.58 355.61C337.88 355.61 339.45 355.61 340.29 355.71C341.23 355.82 341.65 356.13 341.65 356.76C341.65 357.18 341.44 357.49 341.12 357.7C340.5 357.91 339.97 358.12 339.35 358.12C335.16 358.75 331.92 359.27 329.62 359.69C328.16 360 326.69 360.21 325.23 360.42C324.81 360.42 324.5 360.21 324.39 359.9C324.29 359.48 324.29 358.95 324.29 358.54C324.29 358.26 324.29 356.09 324.29 355.82C324.29 354.88 323.97 354.46 323.45 354.46C322.72 354.56 321.99 354.98 321.46 355.5C320.63 356.24 319.48 356.97 318.12 357.91C316.65 358.85 314.98 359.69 313.31 360.31C310.9 361.05 308.81 361.46 306.72 361.36" id="bS0NQLedu"></path><path d="M351.06 292.55C351.16 291.4 350.85 290.14 350.22 289.2C349.7 288.58 348.97 288.05 348.24 287.84C347.5 287.53 346.88 287.32 346.25 287.22C345.73 287.11 345.31 286.69 345.41 286.17C345.41 285.75 345.62 285.44 346.04 285.33C346.67 285.02 347.29 284.81 347.92 284.6C348.72 284.3 355.07 281.87 355.87 281.57C356.18 281.46 356.5 281.36 356.81 281.36C356.92 281.36 357.75 281.36 357.86 281.36C358.17 281.36 358.48 281.57 358.69 281.78C359.01 282.3 359.22 282.93 359.11 283.45C359.11 288.27 359.11 326.84 359.11 331.66C359.11 332.92 359.42 333.54 360.16 333.54C360.78 333.33 361.41 333.12 361.93 332.81C362.98 332.29 364.24 331.66 365.59 330.82C366.95 329.99 368.52 329.05 370.09 328.1C371.66 327.06 373.12 326.12 374.48 325.18C375.84 324.24 376.89 323.4 377.83 322.67C378.77 321.93 379.19 321.31 379.19 320.99C379.19 320.37 378.98 319.63 378.46 319.22C378.04 318.8 377.52 318.48 376.89 318.17C376.37 317.86 375.84 317.65 375.32 317.33C374.9 317.12 374.59 316.71 374.59 316.18C374.59 315.87 374.8 315.56 375.11 315.35C375.42 315.14 375.84 315.03 376.26 315.03C377.52 315.03 378.98 315.03 380.55 315.14C382.12 315.24 383.69 315.24 385.25 315.24C386.72 315.24 388.29 315.24 389.86 315.14C391.42 315.03 392.89 315.03 394.04 315.03C394.56 315.03 395.08 315.14 395.61 315.24C396.13 315.45 396.34 315.87 396.34 316.39C396.34 316.71 396.13 317.02 395.71 317.23C395.19 317.54 394.67 317.75 394.14 317.96C393.52 318.17 392.89 318.38 392.16 318.59C391.53 318.8 391.01 319.01 390.59 319.11C389.75 319.53 388.08 320.37 385.57 321.73C383.06 323.08 380.55 324.55 377.93 326.12C375.32 327.69 373.02 329.15 370.93 330.51C368.94 331.87 367.9 332.71 367.9 333.02C367.9 333.33 368 333.75 368.21 334.07C368.42 334.27 368.63 334.48 368.84 334.69C370.87 336.53 387.1 351.26 389.12 353.1C390.17 354.04 391.32 354.88 392.58 355.61C393.73 356.13 394.67 356.65 395.61 356.97C396.44 357.28 397.18 357.59 397.7 357.8C398.22 358.01 398.43 358.33 398.43 358.75C398.43 359.48 397.39 359.9 395.4 359.9C394.14 359.9 392.78 359.79 391.32 359.69C389.86 359.58 388.18 359.48 386.41 359.48C384.94 359.48 383.48 359.58 381.91 359.69C380.55 359.79 379.08 359.9 377.73 359.9C376.78 359.9 375.95 359.9 375.01 359.69C374.48 359.58 374.17 359.16 374.17 358.75C374.17 358.22 374.59 357.7 375.11 357.59C375.95 357.39 376.78 357.18 377.62 357.07C378.14 356.97 378.77 356.86 379.19 356.44C379.61 356.24 379.82 355.82 379.82 355.4C379.82 354.98 379.4 354.35 378.56 353.52C376.79 351.84 362.66 338.46 360.89 336.78C360.37 336.37 360.05 336.05 359.84 336.05C359.32 336.05 359.01 336.26 359.01 336.68C359.01 338.34 359.01 351.64 359.01 353.31C358.9 354.35 359.22 355.29 359.84 356.03C360.37 356.44 360.89 356.86 361.52 356.97C362.25 357.28 363.08 357.49 363.92 357.59C364.55 357.7 364.97 358.01 364.97 358.64C364.97 359.06 364.65 359.37 364.13 359.58C363.5 359.69 362.88 359.79 362.35 359.79C360.99 359.79 359.63 359.69 358.38 359.58C357.12 359.48 355.76 359.37 354.51 359.37C353.05 359.37 351.58 359.48 350.01 359.58C348.44 359.69 347.08 359.79 346.04 359.79C345.52 359.79 344.89 359.69 344.37 359.58C343.63 359.48 343.22 359.16 343.22 358.54C343.22 358.12 343.42 357.59 343.84 357.39C344.37 357.18 344.89 356.97 345.41 356.86C346.14 356.65 346.98 356.44 347.61 356.24C348.24 356.13 348.86 355.82 349.49 355.5C350.01 355.19 350.43 354.67 350.75 354.14C351.06 353.2 351.16 352.26 351.16 351.32C351.16 347.4 351.12 327.81 351.06 292.55" id="d1B3rNpgRG"></path><path d="M406.27 332.08C406.07 332.6 406.07 333.12 406.07 333.75C406.07 334 406.07 336.01 406.07 336.26C406.07 338.67 406.27 341.18 406.69 343.58C407.11 345.78 407.95 347.97 409.2 349.86C410.56 351.74 412.34 353.31 414.33 354.25C417.05 355.5 420.08 356.03 423.01 355.92C424.78 356.03 426.56 355.71 428.24 355.19C429.28 354.88 430.33 354.25 431.16 353.62C431.79 353.1 432.31 352.58 432.84 351.95C433.15 351.53 433.57 351.22 434.09 351.22C434.82 351.22 435.14 351.53 435.14 352.16C434.93 352.78 434.61 353.41 434.2 353.93C433.36 355.19 432.31 356.24 431.16 357.07C429.49 358.33 427.71 359.37 425.83 360.1C423.32 361.05 420.71 361.57 418.09 361.46C411.61 361.46 406.59 359.37 403.03 355.08C399.48 350.8 397.7 345.05 397.7 337.62C397.7 334.69 398.12 331.87 398.95 329.15C399.79 326.33 401.15 323.61 402.82 321.2C404.6 318.8 406.9 316.81 409.41 315.24C412.34 313.57 415.58 312.84 418.93 312.94C421.86 312.84 424.78 313.46 427.4 314.82C429.49 315.97 431.48 317.44 432.94 319.32C434.3 320.89 435.35 322.77 435.97 324.76C436.5 326.22 436.81 327.79 436.92 329.46C437.02 330.2 436.81 330.93 436.5 331.66C436.18 331.97 435.56 332.18 434.61 332.18C432.73 332.18 423.28 332.14 406.27 332.08M423.63 328.21C424.89 328.1 426.14 327.79 427.29 327.16C428.03 326.85 428.65 326.22 428.97 325.39C429.28 324.55 429.39 323.61 429.39 322.67C429.39 320.68 428.44 318.8 426.88 317.54C425.1 316.18 422.9 315.45 420.71 315.45C418.72 315.45 416.73 315.87 415.06 316.81C413.49 317.65 412.03 318.69 410.88 320.05C409.83 321.2 408.89 322.46 408.26 323.92C407.74 324.97 407.42 326.12 407.32 327.27C407.32 327.48 407.32 327.69 407.53 327.79C407.84 328 408.26 328.1 408.68 328.1C409.31 328.21 410.35 328.21 411.71 328.31C412.97 328.52 414.95 328.52 417.46 328.52C417.46 328.52 417.46 328.52 417.46 328.52C420.25 328.45 422.31 328.35 423.63 328.21Z" id="e6EyCvHXh"></path></defs><g><g><use xlink:href="#c1SoVDvJde" opacity="1" fill="#012169" fill-opacity="1"></use><g><use xlink:href="#c1SoVDvJde" opacity="1" fill-opacity="0" stroke="#000000" stroke-width="1" stroke-opacity="0"></use></g></g><g><use xlink:href="#bS0NQLedu" opacity="1" fill="#012169" fill-opacity="1"></use><g><use xlink:href="#bS0NQLedu" opacity="1" fill-opacity="0" stroke="#000000" stroke-width="1" stroke-opacity="0"></use></g></g><g><use xlink:href="#d1B3rNpgRG" opacity="1" fill="#012169" fill-opacity="1"></use><g><use xlink:href="#d1B3rNpgRG" opacity="1" fill-opacity="0" stroke="#000000" stroke-width="1" stroke-opacity="0"></use></g></g><g><use xlink:href="#e6EyCvHXh" opacity="1" fill="#012169" fill-opacity="1"></use><g><use xlink:href="#e6EyCvHXh" opacity="1" fill-opacity="0" stroke="#000000" stroke-width="1" stroke-opacity="0"></use></g></g></g></svg>